<mxfile>
    <diagram id="SGuukcMLXdnOdczPBwRT" name="Page-1">
        <mxGraphModel dx="3318" dy="1024" grid="1" gridSize="10" guides="1" tooltips="1" connect="1" arrows="1" fold="1" page="1" pageScale="1" pageWidth="850" pageHeight="1100" math="0" shadow="0">
            <root>
                <mxCell id="0"/>
                <mxCell id="1" parent="0"/>
                <mxCell id="4" style="edgeStyle=orthogonalEdgeStyle;rounded=0;orthogonalLoop=1;jettySize=auto;html=1;entryX=0;entryY=0.5;entryDx=0;entryDy=0;strokeColor=#F0F0F0;" parent="1" source="2" target="3" edge="1">
                    <mxGeometry relative="1" as="geometry"/>
                </mxCell>
                <mxCell id="2" value="&lt;font color=&quot;#000000&quot;&gt;Register New&lt;br&gt;User&lt;/font&gt;" style="ellipse;whiteSpace=wrap;html=1;fillColor=#b1ddf0;strokeColor=#10739e;" parent="1" vertex="1">
                    <mxGeometry x="40" y="159.97" width="120" height="80" as="geometry"/>
                </mxCell>
                <mxCell id="6" style="edgeStyle=orthogonalEdgeStyle;rounded=0;orthogonalLoop=1;jettySize=auto;html=1;entryX=0;entryY=0.5;entryDx=0;entryDy=0;strokeColor=#F0F0F0;" parent="1" source="3" target="5" edge="1">
                    <mxGeometry relative="1" as="geometry"/>
                </mxCell>
                <mxCell id="3" value="&lt;font color=&quot;#000000&quot;&gt;Admin enters&lt;br&gt;user into&lt;/font&gt;" style="rounded=0;whiteSpace=wrap;html=1;fillColor=#bac8d3;strokeColor=#23445d;" parent="1" vertex="1">
                    <mxGeometry x="200" y="169.97" width="120" height="60" as="geometry"/>
                </mxCell>
                <mxCell id="7" style="edgeStyle=orthogonalEdgeStyle;rounded=0;orthogonalLoop=1;jettySize=auto;html=1;entryX=0.5;entryY=0;entryDx=0;entryDy=0;strokeColor=#B20000;fillColor=#e51400;strokeWidth=4;" parent="1" source="5" target="3" edge="1">
                    <mxGeometry relative="1" as="geometry">
                        <Array as="points">
                            <mxPoint x="400" y="119.97"/>
                            <mxPoint x="260" y="119.97"/>
                        </Array>
                    </mxGeometry>
                </mxCell>
                <mxCell id="8" value="NO" style="edgeLabel;html=1;align=center;verticalAlign=middle;resizable=0;points=[];labelBackgroundColor=none;" parent="7" vertex="1" connectable="0">
                    <mxGeometry x="-0.1077" y="-3" relative="1" as="geometry">
                        <mxPoint x="-7" y="-9" as="offset"/>
                    </mxGeometry>
                </mxCell>
                <mxCell id="12" style="edgeStyle=orthogonalEdgeStyle;rounded=0;orthogonalLoop=1;jettySize=auto;html=1;entryX=0.5;entryY=1;entryDx=0;entryDy=0;entryPerimeter=0;fontColor=#000000;strokeColor=#2D7600;strokeWidth=4;fillColor=#60a917;" parent="1" source="5" target="9" edge="1">
                    <mxGeometry relative="1" as="geometry"/>
                </mxCell>
                <mxCell id="13" style="edgeStyle=orthogonalEdgeStyle;rounded=0;orthogonalLoop=1;jettySize=auto;html=1;entryX=0.5;entryY=0;entryDx=0;entryDy=0;fontColor=#000000;strokeColor=#2D7600;strokeWidth=4;fillColor=#60a917;" parent="1" source="5" target="11" edge="1">
                    <mxGeometry relative="1" as="geometry"/>
                </mxCell>
                <mxCell id="14" value="YES" style="edgeLabel;html=1;align=center;verticalAlign=middle;resizable=0;points=[];fontColor=#FFFFFF;labelBackgroundColor=none;" parent="13" vertex="1" connectable="0">
                    <mxGeometry x="-0.5449" y="1" relative="1" as="geometry">
                        <mxPoint x="5" y="-9" as="offset"/>
                    </mxGeometry>
                </mxCell>
                <mxCell id="5" value="&lt;font&gt;Is&lt;br&gt;unique&lt;br&gt;email&lt;br&gt;?&lt;/font&gt;" style="rhombus;whiteSpace=wrap;html=1;strokeColor=#330066;fillColor=#9933FF;fontColor=#FFFFFF;" parent="1" vertex="1">
                    <mxGeometry x="360" y="159.97" width="80" height="80" as="geometry"/>
                </mxCell>
                <mxCell id="9" value="Save&lt;br&gt;User&lt;br&gt;Info" style="shape=cylinder3;whiteSpace=wrap;html=1;boundedLbl=1;backgroundOutline=1;size=15;strokeColor=#BD7000;fillColor=#f0a30a;fontColor=#000000;" parent="1" vertex="1">
                    <mxGeometry x="480" y="79.97" width="60" height="80" as="geometry"/>
                </mxCell>
                <mxCell id="10" value="PostGres" style="text;html=1;strokeColor=none;fillColor=none;align=center;verticalAlign=middle;whiteSpace=wrap;rounded=0;fontColor=#000000;" parent="1" vertex="1">
                    <mxGeometry x="490" y="83.97" width="40" height="20" as="geometry"/>
                </mxCell>
                <mxCell id="17" value="" style="edgeStyle=orthogonalEdgeStyle;rounded=0;orthogonalLoop=1;jettySize=auto;html=1;fontColor=#FFFFFF;strokeColor=#F0F0F0;strokeWidth=1;entryX=0;entryY=0.75;entryDx=0;entryDy=0;" parent="1" source="11" target="15" edge="1">
                    <mxGeometry relative="1" as="geometry"/>
                </mxCell>
                <mxCell id="11" value="Server sends&lt;br&gt;verification email" style="shape=parallelogram;perimeter=parallelogramPerimeter;whiteSpace=wrap;html=1;fixedSize=1;fontColor=#000000;strokeColor=#B09500;fillColor=#e3c800;" parent="1" vertex="1">
                    <mxGeometry x="450" y="239.97" width="120" height="60" as="geometry"/>
                </mxCell>
                <mxCell id="19" value="" style="edgeStyle=orthogonalEdgeStyle;rounded=0;orthogonalLoop=1;jettySize=auto;html=1;fontColor=#FFFFFF;strokeColor=#F0F0F0;strokeWidth=1;exitX=1;exitY=0.75;exitDx=0;exitDy=0;" parent="1" source="15" target="18" edge="1">
                    <mxGeometry relative="1" as="geometry"/>
                </mxCell>
                <mxCell id="15" value="&lt;br&gt;&lt;br&gt;User Clicks&lt;br&gt;link" style="shape=manualInput;whiteSpace=wrap;html=1;fontColor=#ffffff;fillColor=#A3743E;strokeColor=#543C17;" parent="1" vertex="1">
                    <mxGeometry x="600" y="210" width="80" height="80" as="geometry"/>
                </mxCell>
                <mxCell id="21" value="" style="edgeStyle=orthogonalEdgeStyle;rounded=0;orthogonalLoop=1;jettySize=auto;html=1;fontColor=#FFFFFF;strokeColor=#B20000;strokeWidth=4;fillColor=#e51400;" parent="1" source="18" target="20" edge="1">
                    <mxGeometry relative="1" as="geometry"/>
                </mxCell>
                <mxCell id="22" value="NO" style="edgeLabel;html=1;align=center;verticalAlign=middle;resizable=0;points=[];fontColor=#FFFFFF;labelBackgroundColor=none;" parent="21" vertex="1" connectable="0">
                    <mxGeometry x="-0.127" y="-1" relative="1" as="geometry">
                        <mxPoint x="19" y="1" as="offset"/>
                    </mxGeometry>
                </mxCell>
                <mxCell id="24" value="" style="edgeStyle=orthogonalEdgeStyle;rounded=0;orthogonalLoop=1;jettySize=auto;html=1;fontColor=#FFFFFF;strokeColor=#2D7600;strokeWidth=4;fillColor=#60a917;" parent="1" source="18" target="23" edge="1">
                    <mxGeometry relative="1" as="geometry"/>
                </mxCell>
                <mxCell id="25" value="YES" style="edgeLabel;html=1;align=center;verticalAlign=middle;resizable=0;points=[];fontColor=#FFFFFF;labelBackgroundColor=none;" parent="24" vertex="1" connectable="0">
                    <mxGeometry x="-0.1387" y="3" relative="1" as="geometry">
                        <mxPoint x="1" y="13" as="offset"/>
                    </mxGeometry>
                </mxCell>
                <mxCell id="18" value="&lt;font&gt;Is&lt;br&gt;valid&lt;br&gt;Link&lt;br&gt;?&lt;/font&gt;" style="rhombus;whiteSpace=wrap;html=1;strokeColor=#330066;fillColor=#9933FF;fontColor=#FFFFFF;" parent="1" vertex="1">
                    <mxGeometry x="720.0000000000002" y="229.96999999999997" width="80" height="80" as="geometry"/>
                </mxCell>
                <mxCell id="20" value="&lt;font color=&quot;#000000&quot;&gt;Error Page&lt;/font&gt;" style="ellipse;whiteSpace=wrap;html=1;fillColor=#b1ddf0;strokeColor=#10739e;" parent="1" vertex="1">
                    <mxGeometry x="700" y="79.96999999999994" width="120" height="80" as="geometry"/>
                </mxCell>
                <mxCell id="28" value="" style="edgeStyle=orthogonalEdgeStyle;rounded=0;orthogonalLoop=1;jettySize=auto;html=1;fontColor=#FFFFFF;strokeColor=#F0F0F0;strokeWidth=1;" parent="1" source="23" target="26" edge="1">
                    <mxGeometry relative="1" as="geometry"/>
                </mxCell>
                <mxCell id="34" value="" style="edgeStyle=orthogonalEdgeStyle;rounded=0;orthogonalLoop=1;jettySize=auto;html=1;fontColor=#FFFFFF;strokeColor=#F0F0F0;strokeWidth=1;" parent="1" source="23" target="29" edge="1">
                    <mxGeometry relative="1" as="geometry"/>
                </mxCell>
                <mxCell id="23" value="User creates&lt;br&gt;new password" style="shape=parallelogram;perimeter=parallelogramPerimeter;whiteSpace=wrap;html=1;fixedSize=1;fontColor=#000000;strokeColor=#B09500;fillColor=#e3c800;" parent="1" vertex="1">
                    <mxGeometry x="880.0000000000002" y="239.96999999999997" width="120" height="60" as="geometry"/>
                </mxCell>
                <mxCell id="26" value="Save&lt;br&gt;User&lt;br&gt;Info" style="shape=cylinder3;whiteSpace=wrap;html=1;boundedLbl=1;backgroundOutline=1;size=15;strokeColor=#BD7000;fillColor=#f0a30a;fontColor=#000000;" parent="1" vertex="1">
                    <mxGeometry x="910" y="89.97" width="60" height="80" as="geometry"/>
                </mxCell>
                <mxCell id="27" value="PostGres" style="text;html=1;strokeColor=none;fillColor=none;align=center;verticalAlign=middle;whiteSpace=wrap;rounded=0;fontColor=#000000;" parent="1" vertex="1">
                    <mxGeometry x="920" y="93.97" width="40" height="20" as="geometry"/>
                </mxCell>
                <mxCell id="33" value="" style="edgeStyle=orthogonalEdgeStyle;rounded=0;orthogonalLoop=1;jettySize=auto;html=1;fontColor=#FFFFFF;strokeColor=#F0F0F0;strokeWidth=1;" parent="1" source="29" target="30" edge="1">
                    <mxGeometry relative="1" as="geometry"/>
                </mxCell>
                <mxCell id="36" value="" style="edgeStyle=orthogonalEdgeStyle;rounded=0;orthogonalLoop=1;jettySize=auto;html=1;fontColor=#FFFFFF;strokeColor=#F0F0F0;strokeWidth=1;" parent="1" source="29" target="35" edge="1">
                    <mxGeometry relative="1" as="geometry"/>
                </mxCell>
                <mxCell id="29" value="&lt;font color=&quot;#000000&quot;&gt;Auth tokens&lt;br&gt;generated&lt;/font&gt;" style="rounded=0;whiteSpace=wrap;html=1;fillColor=#bac8d3;strokeColor=#23445d;" parent="1" vertex="1">
                    <mxGeometry x="1040" y="239.96999999999997" width="120" height="60" as="geometry"/>
                </mxCell>
                <mxCell id="30" value="Save&lt;br&gt;Refresh&lt;br&gt;Token" style="shape=cylinder3;whiteSpace=wrap;html=1;boundedLbl=1;backgroundOutline=1;size=15;strokeColor=#BD7000;fillColor=#f0a30a;fontColor=#000000;" parent="1" vertex="1">
                    <mxGeometry x="1070" y="93.97" width="60" height="80" as="geometry"/>
                </mxCell>
                <mxCell id="31" value="Redis" style="text;html=1;strokeColor=none;fillColor=none;align=center;verticalAlign=middle;whiteSpace=wrap;rounded=0;fontColor=#000000;" parent="1" vertex="1">
                    <mxGeometry x="1080" y="97.97" width="40" height="20" as="geometry"/>
                </mxCell>
                <mxCell id="64" value="" style="edgeStyle=orthogonalEdgeStyle;rounded=0;jumpStyle=arc;jumpSize=19;orthogonalLoop=1;jettySize=auto;html=1;fontColor=#FFFFFF;strokeColor=#F0F0F0;strokeWidth=1;" parent="1" source="35" target="63" edge="1">
                    <mxGeometry relative="1" as="geometry"/>
                </mxCell>
                <mxCell id="35" value="&lt;font color=&quot;#000000&quot;&gt;User receives&lt;br&gt;Auth Token&lt;/font&gt;" style="ellipse;whiteSpace=wrap;html=1;fillColor=#b1ddf0;strokeColor=#10739e;" parent="1" vertex="1">
                    <mxGeometry x="1200" y="229.96999999999994" width="120" height="80" as="geometry"/>
                </mxCell>
                <mxCell id="39" value="" style="edgeStyle=orthogonalEdgeStyle;rounded=0;orthogonalLoop=1;jettySize=auto;html=1;fontColor=#FFFFFF;strokeColor=#F0F0F0;strokeWidth=1;" parent="1" source="37" target="38" edge="1">
                    <mxGeometry relative="1" as="geometry"/>
                </mxCell>
                <mxCell id="37" value="&lt;font color=&quot;#000000&quot;&gt;Login User&lt;/font&gt;" style="ellipse;whiteSpace=wrap;html=1;fillColor=#b1ddf0;strokeColor=#10739e;" parent="1" vertex="1">
                    <mxGeometry x="40" y="509.99999999999994" width="120" height="80" as="geometry"/>
                </mxCell>
                <mxCell id="41" value="" style="edgeStyle=orthogonalEdgeStyle;rounded=0;orthogonalLoop=1;jettySize=auto;html=1;fontColor=#FFFFFF;strokeColor=#F0F0F0;strokeWidth=1;" parent="1" source="38" target="40" edge="1">
                    <mxGeometry relative="1" as="geometry"/>
                </mxCell>
                <mxCell id="38" value="&lt;br&gt;&lt;br&gt;User enters&lt;br&gt;credentials" style="shape=manualInput;whiteSpace=wrap;html=1;fontColor=#ffffff;fillColor=#A3743E;strokeColor=#543C17;" parent="1" vertex="1">
                    <mxGeometry x="200.00000000000023" y="510" width="80" height="80" as="geometry"/>
                </mxCell>
                <mxCell id="43" style="edgeStyle=orthogonalEdgeStyle;rounded=0;orthogonalLoop=1;jettySize=auto;html=1;entryX=0.5;entryY=1;entryDx=0;entryDy=0;fontColor=#FFFFFF;strokeColor=#2D7600;strokeWidth=4;fillColor=#60a917;" parent="1" source="40" target="29" edge="1">
                    <mxGeometry relative="1" as="geometry">
                        <Array as="points">
                            <mxPoint x="360" y="440"/>
                            <mxPoint x="1100" y="440"/>
                        </Array>
                    </mxGeometry>
                </mxCell>
                <mxCell id="44" value="YES" style="edgeLabel;html=1;align=center;verticalAlign=middle;resizable=0;points=[];fontColor=#FFFFFF;labelBackgroundColor=none;" parent="43" vertex="1" connectable="0">
                    <mxGeometry x="-0.2018" y="-2" relative="1" as="geometry">
                        <mxPoint x="11" y="8" as="offset"/>
                    </mxGeometry>
                </mxCell>
                <mxCell id="46" value="" style="edgeStyle=orthogonalEdgeStyle;rounded=0;orthogonalLoop=1;jettySize=auto;html=1;fontColor=#FFFFFF;strokeColor=#F0F0F0;strokeWidth=1;" parent="1" source="40" target="45" edge="1">
                    <mxGeometry relative="1" as="geometry"/>
                </mxCell>
                <mxCell id="40" value="&lt;font&gt;Is&lt;br&gt;valid&lt;br&gt;login&lt;br&gt;?&lt;/font&gt;" style="rhombus;whiteSpace=wrap;html=1;strokeColor=#330066;fillColor=#9933FF;fontColor=#FFFFFF;" parent="1" vertex="1">
                    <mxGeometry x="320.0000000000002" y="510" width="80" height="80" as="geometry"/>
                </mxCell>
                <mxCell id="50" value="" style="edgeStyle=orthogonalEdgeStyle;rounded=0;orthogonalLoop=1;jettySize=auto;html=1;fontColor=#FFFFFF;strokeColor=#F0F0F0;strokeWidth=1;" parent="1" source="45" target="47" edge="1">
                    <mxGeometry relative="1" as="geometry"/>
                </mxCell>
                <mxCell id="45" value="Server sends&lt;br&gt;Error Response" style="shape=parallelogram;perimeter=parallelogramPerimeter;whiteSpace=wrap;html=1;fixedSize=1;fontColor=#000000;strokeColor=#B09500;fillColor=#e3c800;" parent="1" vertex="1">
                    <mxGeometry x="425.0000000000002" y="520" width="120" height="60" as="geometry"/>
                </mxCell>
                <mxCell id="48" style="edgeStyle=orthogonalEdgeStyle;rounded=0;orthogonalLoop=1;jettySize=auto;html=1;entryX=0.5;entryY=1;entryDx=0;entryDy=0;fontColor=#FFFFFF;strokeColor=#B20000;strokeWidth=4;fillColor=#e51400;" parent="1" source="47" target="38" edge="1">
                    <mxGeometry relative="1" as="geometry">
                        <Array as="points">
                            <mxPoint x="640" y="640"/>
                            <mxPoint x="240" y="640"/>
                        </Array>
                    </mxGeometry>
                </mxCell>
                <mxCell id="49" value="NO" style="edgeLabel;html=1;align=center;verticalAlign=middle;resizable=0;points=[];fontColor=#FFFFFF;labelBackgroundColor=none;" parent="48" vertex="1" connectable="0">
                    <mxGeometry x="0.0026" y="4" relative="1" as="geometry">
                        <mxPoint y="-14" as="offset"/>
                    </mxGeometry>
                </mxCell>
                <mxCell id="52" value="" style="edgeStyle=orthogonalEdgeStyle;rounded=0;orthogonalLoop=1;jettySize=auto;html=1;fontColor=#FFFFFF;strokeColor=#2D7600;strokeWidth=4;fillColor=#60a917;" parent="1" source="47" target="51" edge="1">
                    <mxGeometry relative="1" as="geometry"/>
                </mxCell>
                <mxCell id="53" value="YES" style="edgeLabel;html=1;align=center;verticalAlign=middle;resizable=0;points=[];fontColor=#FFFFFF;labelBackgroundColor=none;" parent="52" vertex="1" connectable="0">
                    <mxGeometry x="-0.0542" relative="1" as="geometry">
                        <mxPoint x="-8" y="10" as="offset"/>
                    </mxGeometry>
                </mxCell>
                <mxCell id="47" value="&lt;font&gt;Forgot&lt;br&gt;Password&lt;br&gt;?&lt;/font&gt;" style="rhombus;whiteSpace=wrap;html=1;strokeColor=#330066;fillColor=#9933FF;fontColor=#FFFFFF;" parent="1" vertex="1">
                    <mxGeometry x="600.0000000000002" y="510" width="80" height="80" as="geometry"/>
                </mxCell>
                <mxCell id="57" value="" style="edgeStyle=orthogonalEdgeStyle;rounded=0;orthogonalLoop=1;jettySize=auto;html=1;fontColor=#FFFFFF;strokeColor=#F0F0F0;strokeWidth=1;entryX=0.5;entryY=0;entryDx=0;entryDy=0;entryPerimeter=0;" parent="1" source="51" target="54" edge="1">
                    <mxGeometry relative="1" as="geometry"/>
                </mxCell>
                <mxCell id="59" value="" style="edgeStyle=orthogonalEdgeStyle;rounded=0;orthogonalLoop=1;jettySize=auto;html=1;fontColor=#FFFFFF;strokeColor=#F0F0F0;strokeWidth=1;" parent="1" source="51" target="58" edge="1">
                    <mxGeometry relative="1" as="geometry"/>
                </mxCell>
                <mxCell id="51" value="&lt;font color=&quot;#000000&quot;&gt;Server generates&lt;br&gt;temporary code&lt;/font&gt;" style="rounded=0;whiteSpace=wrap;html=1;fillColor=#bac8d3;strokeColor=#23445d;" parent="1" vertex="1">
                    <mxGeometry x="760" y="520" width="120" height="60" as="geometry"/>
                </mxCell>
                <mxCell id="54" value="&lt;font style=&quot;font-size: 8px&quot;&gt;Update&lt;br&gt;tempCode&lt;br&gt;tempExpires&lt;/font&gt;" style="shape=cylinder3;whiteSpace=wrap;html=1;boundedLbl=1;backgroundOutline=1;size=15;strokeColor=#BD7000;fillColor=#f0a30a;fontColor=#000000;" parent="1" vertex="1">
                    <mxGeometry x="790" y="630" width="60" height="80" as="geometry"/>
                </mxCell>
                <mxCell id="55" value="PostGres" style="text;html=1;strokeColor=none;fillColor=none;align=center;verticalAlign=middle;whiteSpace=wrap;rounded=0;fontColor=#000000;" parent="1" vertex="1">
                    <mxGeometry x="800" y="634" width="40" height="20" as="geometry"/>
                </mxCell>
                <mxCell id="61" value="" style="edgeStyle=orthogonalEdgeStyle;rounded=0;orthogonalLoop=1;jettySize=auto;html=1;fontColor=#FFFFFF;strokeColor=#F0F0F0;strokeWidth=1;" parent="1" source="58" target="60" edge="1">
                    <mxGeometry relative="1" as="geometry"/>
                </mxCell>
                <mxCell id="58" value="Server sends &lt;br&gt;email with code" style="shape=parallelogram;perimeter=parallelogramPerimeter;whiteSpace=wrap;html=1;fixedSize=1;fontColor=#000000;strokeColor=#B09500;fillColor=#e3c800;" parent="1" vertex="1">
                    <mxGeometry x="910.0000000000002" y="520" width="120" height="60" as="geometry"/>
                </mxCell>
                <mxCell id="62" style="edgeStyle=orthogonalEdgeStyle;rounded=0;orthogonalLoop=1;jettySize=auto;html=1;fontColor=#FFFFFF;strokeColor=#F0F0F0;strokeWidth=2;jumpStyle=arc;jumpSize=19;" parent="1" source="60" edge="1">
                    <mxGeometry relative="1" as="geometry">
                        <mxPoint x="760" y="310" as="targetPoint"/>
                        <Array as="points">
                            <mxPoint x="1110" y="480"/>
                            <mxPoint x="760" y="480"/>
                        </Array>
                    </mxGeometry>
                </mxCell>
                <mxCell id="60" value="&lt;br&gt;&lt;br&gt;User Clicks&lt;br&gt;link" style="shape=manualInput;whiteSpace=wrap;html=1;fontColor=#ffffff;fillColor=#A3743E;strokeColor=#543C17;" parent="1" vertex="1">
                    <mxGeometry x="1070.0000000000002" y="510" width="80" height="80" as="geometry"/>
                </mxCell>
                <mxCell id="66" value="" style="edgeStyle=orthogonalEdgeStyle;rounded=0;jumpStyle=arc;jumpSize=19;orthogonalLoop=1;jettySize=auto;html=1;fontColor=#FFFFFF;strokeColor=#F0F0F0;strokeWidth=1;" parent="1" source="63" target="65" edge="1">
                    <mxGeometry relative="1" as="geometry"/>
                </mxCell>
                <mxCell id="84" style="edgeStyle=orthogonalEdgeStyle;rounded=0;jumpStyle=arc;jumpSize=19;orthogonalLoop=1;jettySize=auto;html=1;entryX=0;entryY=0.5;entryDx=0;entryDy=0;fontColor=#FFFFFF;strokeColor=#F0F0F0;strokeWidth=1;" parent="1" source="63" target="83" edge="1">
                    <mxGeometry relative="1" as="geometry">
                        <Array as="points">
                            <mxPoint x="1410" y="390"/>
                        </Array>
                    </mxGeometry>
                </mxCell>
                <mxCell id="63" value="User Utilizes API" style="shape=parallelogram;perimeter=parallelogramPerimeter;whiteSpace=wrap;html=1;fixedSize=1;fontColor=#000000;strokeColor=#B09500;fillColor=#e3c800;" parent="1" vertex="1">
                    <mxGeometry x="1360.0000000000002" y="239.97" width="120" height="60" as="geometry"/>
                </mxCell>
                <mxCell id="68" value="" style="edgeStyle=orthogonalEdgeStyle;rounded=0;jumpStyle=arc;jumpSize=19;orthogonalLoop=1;jettySize=auto;html=1;fontColor=#FFFFFF;strokeColor=#F0F0F0;strokeWidth=1;" parent="1" source="65" target="67" edge="1">
                    <mxGeometry relative="1" as="geometry"/>
                </mxCell>
                <mxCell id="65" value="User sends&lt;br&gt;Auth Token" style="shape=parallelogram;perimeter=parallelogramPerimeter;whiteSpace=wrap;html=1;fixedSize=1;fontColor=#000000;strokeColor=#B09500;fillColor=#e3c800;" parent="1" vertex="1">
                    <mxGeometry x="1520.0000000000002" y="239.97" width="120" height="60" as="geometry"/>
                </mxCell>
                <mxCell id="69" style="edgeStyle=orthogonalEdgeStyle;rounded=0;jumpStyle=arc;jumpSize=19;orthogonalLoop=1;jettySize=auto;html=1;entryX=0.5;entryY=0;entryDx=0;entryDy=0;fontColor=#FFFFFF;strokeWidth=4;fillColor=#60a917;strokeColor=#2D7600;" parent="1" source="67" target="63" edge="1">
                    <mxGeometry relative="1" as="geometry">
                        <Array as="points">
                            <mxPoint x="1720" y="200"/>
                            <mxPoint x="1420" y="200"/>
                        </Array>
                    </mxGeometry>
                </mxCell>
                <mxCell id="70" value="YES" style="edgeLabel;html=1;align=center;verticalAlign=middle;resizable=0;points=[];fontColor=#FFFFFF;labelBackgroundColor=none;" parent="69" vertex="1" connectable="0">
                    <mxGeometry x="0.143" y="2" relative="1" as="geometry">
                        <mxPoint x="41" y="8" as="offset"/>
                    </mxGeometry>
                </mxCell>
                <mxCell id="72" value="" style="edgeStyle=orthogonalEdgeStyle;rounded=0;jumpStyle=arc;jumpSize=19;orthogonalLoop=1;jettySize=auto;html=1;fontColor=#FFFFFF;strokeColor=#B20000;strokeWidth=4;fillColor=#e51400;" parent="1" source="67" target="71" edge="1">
                    <mxGeometry relative="1" as="geometry"/>
                </mxCell>
                <mxCell id="73" value="NO" style="edgeLabel;html=1;align=center;verticalAlign=middle;resizable=0;points=[];fontColor=#FFFFFF;labelBackgroundColor=none;" parent="72" vertex="1" connectable="0">
                    <mxGeometry x="-0.2524" y="-1" relative="1" as="geometry">
                        <mxPoint x="4" y="9" as="offset"/>
                    </mxGeometry>
                </mxCell>
                <mxCell id="67" value="&lt;font&gt;Is&lt;br&gt;Token&lt;br&gt;valid&lt;br&gt;?&lt;/font&gt;" style="rhombus;whiteSpace=wrap;html=1;strokeColor=#330066;fillColor=#9933FF;fontColor=#FFFFFF;" parent="1" vertex="1">
                    <mxGeometry x="1680.0000000000002" y="229.97" width="80" height="80" as="geometry"/>
                </mxCell>
                <mxCell id="75" value="" style="edgeStyle=orthogonalEdgeStyle;rounded=0;jumpStyle=arc;jumpSize=19;orthogonalLoop=1;jettySize=auto;html=1;fontColor=#FFFFFF;strokeColor=#F0F0F0;strokeWidth=1;" parent="1" source="71" target="74" edge="1">
                    <mxGeometry relative="1" as="geometry"/>
                </mxCell>
                <mxCell id="71" value="Server returns&lt;br&gt;Not Authorized" style="shape=parallelogram;perimeter=parallelogramPerimeter;whiteSpace=wrap;html=1;fixedSize=1;fontColor=#000000;strokeColor=#B09500;fillColor=#e3c800;" parent="1" vertex="1">
                    <mxGeometry x="1820.0000000000002" y="239.96999999999997" width="120" height="60" as="geometry"/>
                </mxCell>
                <mxCell id="77" value="" style="edgeStyle=orthogonalEdgeStyle;rounded=0;jumpStyle=arc;jumpSize=19;orthogonalLoop=1;jettySize=auto;html=1;fontColor=#FFFFFF;strokeColor=#F0F0F0;strokeWidth=1;" parent="1" source="74" target="76" edge="1">
                    <mxGeometry relative="1" as="geometry"/>
                </mxCell>
                <mxCell id="74" value="User sends&lt;br&gt;Refresh Token" style="shape=parallelogram;perimeter=parallelogramPerimeter;whiteSpace=wrap;html=1;fixedSize=1;fontColor=#000000;strokeColor=#B09500;fillColor=#e3c800;" parent="1" vertex="1">
                    <mxGeometry x="1970.0000000000002" y="239.96999999999997" width="120" height="60" as="geometry"/>
                </mxCell>
                <mxCell id="78" style="edgeStyle=orthogonalEdgeStyle;rounded=0;jumpStyle=arc;jumpSize=19;orthogonalLoop=1;jettySize=auto;html=1;entryX=0.5;entryY=0;entryDx=0;entryDy=0;fontColor=#FFFFFF;strokeColor=#2D7600;strokeWidth=4;fillColor=#60a917;" parent="1" source="76" target="35" edge="1">
                    <mxGeometry relative="1" as="geometry">
                        <Array as="points">
                            <mxPoint x="2160" y="160"/>
                            <mxPoint x="1260" y="160"/>
                        </Array>
                    </mxGeometry>
                </mxCell>
                <mxCell id="79" value="YES" style="edgeLabel;html=1;align=center;verticalAlign=middle;resizable=0;points=[];fontColor=#FFFFFF;labelBackgroundColor=none;" parent="78" vertex="1" connectable="0">
                    <mxGeometry x="0.001" y="1" relative="1" as="geometry">
                        <mxPoint x="-10" y="-11" as="offset"/>
                    </mxGeometry>
                </mxCell>
                <mxCell id="81" value="" style="edgeStyle=orthogonalEdgeStyle;rounded=0;jumpStyle=arc;jumpSize=19;orthogonalLoop=1;jettySize=auto;html=1;fontColor=#FFFFFF;strokeColor=#B20000;strokeWidth=4;fillColor=#e51400;" parent="1" source="76" target="80" edge="1">
                    <mxGeometry relative="1" as="geometry"/>
                </mxCell>
                <mxCell id="82" value="NO" style="edgeLabel;html=1;align=center;verticalAlign=middle;resizable=0;points=[];fontColor=#FFFFFF;labelBackgroundColor=none;" parent="81" vertex="1" connectable="0">
                    <mxGeometry x="-0.1094" y="2" relative="1" as="geometry">
                        <mxPoint y="12" as="offset"/>
                    </mxGeometry>
                </mxCell>
                <mxCell id="76" value="&lt;font style=&quot;font-size: 10px&quot;&gt;Is&lt;br&gt;Refresh Token&lt;br&gt;valid?&lt;/font&gt;" style="rhombus;whiteSpace=wrap;html=1;strokeColor=#330066;fillColor=#9933FF;fontColor=#FFFFFF;" parent="1" vertex="1">
                    <mxGeometry x="2120" y="229.96999999999997" width="80" height="80" as="geometry"/>
                </mxCell>
                <mxCell id="80" value="&lt;font color=&quot;#000000&quot;&gt;User logs out&lt;/font&gt;" style="ellipse;whiteSpace=wrap;html=1;fillColor=#b1ddf0;strokeColor=#10739e;" parent="1" vertex="1">
                    <mxGeometry x="2270" y="229.96999999999994" width="120" height="80" as="geometry"/>
                </mxCell>
                <mxCell id="85" style="edgeStyle=orthogonalEdgeStyle;rounded=0;jumpStyle=arc;jumpSize=19;orthogonalLoop=1;jettySize=auto;html=1;entryX=0.5;entryY=1;entryDx=0;entryDy=0;fontColor=#FFFFFF;strokeColor=#F0F0F0;strokeWidth=1;" parent="1" source="83" target="80" edge="1">
                    <mxGeometry relative="1" as="geometry"/>
                </mxCell>
                <mxCell id="88" style="edgeStyle=orthogonalEdgeStyle;rounded=0;jumpStyle=arc;jumpSize=19;orthogonalLoop=1;jettySize=auto;html=1;entryX=0.5;entryY=0;entryDx=0;entryDy=0;entryPerimeter=0;fontColor=#FFFFFF;strokeColor=#F0F0F0;strokeWidth=1;" parent="1" source="83" target="86" edge="1">
                    <mxGeometry relative="1" as="geometry"/>
                </mxCell>
                <mxCell id="83" value="&lt;br&gt;&lt;br&gt;User Clicks&lt;br&gt;link" style="shape=manualInput;whiteSpace=wrap;html=1;fontColor=#ffffff;fillColor=#A3743E;strokeColor=#543C17;" parent="1" vertex="1">
                    <mxGeometry x="1520.0000000000002" y="350" width="80" height="80" as="geometry"/>
                </mxCell>
                <mxCell id="86" value="Delete&lt;br&gt;Refresh&lt;br&gt;Token" style="shape=cylinder3;whiteSpace=wrap;html=1;boundedLbl=1;backgroundOutline=1;size=15;strokeColor=#BD7000;fillColor=#f0a30a;fontColor=#000000;" parent="1" vertex="1">
                    <mxGeometry x="1530" y="480" width="60" height="80" as="geometry"/>
                </mxCell>
                <mxCell id="87" value="Redis" style="text;html=1;strokeColor=none;fillColor=none;align=center;verticalAlign=middle;whiteSpace=wrap;rounded=0;fontColor=#000000;" parent="1" vertex="1">
                    <mxGeometry x="1540" y="484" width="40" height="20" as="geometry"/>
                </mxCell>
            </root>
        </mxGraphModel>
    </diagram>
</mxfile>